<svg xmlns="http://www.w3.org/2000/svg" version="1.1" xmlns:xlink="http://www.w3.org/1999/xlink" xmlns:svgjs="http://svgjs.com/svgjs" width="1440" height="559" preserveAspectRatio="none" viewBox="0 0 1440 559"><g mask="url(&quot;#SvgjsMask1093&quot;)" fill="none"><rect width="1440" height="559" x="0" y="0" fill="rgba(24, 106, 59, 1)"></rect><path d="M0,329.801C69.032,347.204,146.593,359.411,209.208,325.534C272.828,291.114,311.173,220.648,330.557,150.96C348.491,86.483,325.477,20.709,312.241,-44.894C299.768,-106.713,301.392,-178.147,255.441,-221.341C210.099,-263.963,138.079,-249.47,77.871,-265.203C19.989,-280.329,-32.2,-318.979,-91.622,-312.035C-155.701,-304.547,-213.69,-270.133,-260.436,-225.669C-310.265,-178.272,-359.851,-121.025,-364.562,-52.416C-369.203,15.181,-325.313,75.735,-284.864,130.093C-250.331,176.501,-198.236,201.552,-150.87,234.759C-101.195,269.584,-58.825,314.971,0,329.801" fill="#104526"></path><path d="M1440 1054.406C1531.958 1057.4279999999999 1608.517 991.395 1685.531 941.053 1761.968 891.088 1855.185 848.6600000000001 1886.165 762.7570000000001 1916.776 677.877 1856.2939999999999 590.301 1844.279 500.874 1832.115 410.336 1860.556 313.20799999999997 1815.1190000000001 233.95800000000003 1766.136 148.524 1684.056 76.86500000000001 1588.209 54.24599999999998 1493.787 31.962999999999965 1397.723 74.231 1309.525 114.64299999999997 1230.744 150.74 1161.183 203.15800000000002 1110.233 273.255 1062.089 339.49199999999996 1042.137 419.076 1029.449 499.972 1016.617 581.782 1004.973 666.698 1036.512 743.267 1068.615 821.2049999999999 1137.875 873.779 1204.625 925.251 1276.96 981.03 1348.705 1051.406 1440 1054.406" fill="#208f50"></path></g><defs><mask id="SvgjsMask1093"><rect width="1440" height="559" fill="#ffffff"></rect></mask></defs></svg>