<svg xmlns="http://www.w3.org/2000/svg" version="1.1" xmlns:xlink="http://www.w3.org/1999/xlink" xmlns:svgjs="http://svgjs.com/svgjs" width="1440" height="560" preserveAspectRatio="none" viewBox="0 0 1440 560"><g mask="url(&quot;#SvgjsMask1812&quot;)" fill="none"><rect width="1440" height="560" x="0" y="0" fill="url(#SvgjsLinearGradient1813)"></rect><path d="M1440 0L1118.07 0L1440 247.3z" fill="rgba(255, 255, 255, .1)"></path><path d="M1118.07 0L1440 247.3L1440 342.14L583.3399999999999 0z" fill="rgba(255, 255, 255, .075)"></path><path d="M583.3399999999999 0L1440 342.14L1440 400.4L517.1199999999999 0z" fill="rgba(255, 255, 255, .05)"></path><path d="M517.1199999999999 0L1440 400.4L1440 476.37L198.6199999999999 0z" fill="rgba(255, 255, 255, .025)"></path><path d="M0 560L12.53 560L0 393.63z" fill="rgba(0, 0, 0, .1)"></path><path d="M0 393.63L12.53 560L406.40999999999997 560L0 184.10999999999999z" fill="rgba(0, 0, 0, .075)"></path><path d="M0 184.11L406.40999999999997 560L715.5899999999999 560L0 69.81000000000002z" fill="rgba(0, 0, 0, .05)"></path><path d="M0 69.81L715.5899999999999 560L1086.9699999999998 560L0 31.330000000000005z" fill="rgba(0, 0, 0, .025)"></path></g><defs><mask id="SvgjsMask1812"><rect width="1440" height="560" fill="#ffffff"></rect></mask><linearGradient x1="84.72%" y1="-39.29%" x2="15.28%" y2="139.29%" gradientUnits="userSpaceOnUse" id="SvgjsLinearGradient1813"><stop stop-color="rgba(10, 10, 11, 1)" offset="0.49"></stop><stop stop-color="rgba(0, 0, 0, 1)" offset="1"></stop></linearGradient></defs></svg>